<?xml version="1.0" encoding="UTF-8"?>
<svg width="67px" height="21px" viewBox="0 0 67 21" version="1.1" xmlns="http://www.w3.org/2000/svg" xmlns:xlink="http://www.w3.org/1999/xlink">
    <!-- Generator: Sketch 52.6 (67491) - http://www.bohemiancoding.com/sketch -->
    <title>path5009</title>
    <desc>Created with Sketch.</desc>
    <g id="Page-1" stroke="none" stroke-width="1" fill="none" fill-rule="evenodd">
        <g id="Desktop-HD-Copy-3" transform="translate(-40.000000, -40.000000)" fill="#FFFFFF" fill-rule="nonzero">
            <g id="livionkeylogo" transform="translate(-8.000000, 0.000000)">
                <path d="M76.0730261,61 L75.2417141,61 L75.2417141,56.5121221 L76.0730261,56.5121221 L76.0730261,58.5549237 L78.1878143,56.5121221 L79.2120497,56.5121221 L77.3163099,58.3035019 L79.3446845,61 L78.3070517,61 L76.7509373,58.8566298 L76.0730261,59.4914696 L76.0730261,61 Z M83.2621002,61 L79.7968486,61 L79.7968486,56.5121221 L83.2152091,56.5121221 L83.2152091,57.1909608 L80.6281606,57.1909608 L80.6281606,58.3663574 L83.0222858,58.3663574 L83.0222858,59.0074828 L80.6281606,59.0074828 L80.6281606,60.3211613 L83.2621002,60.3211613 L83.2621002,61 Z M86.0547996,61 L85.2234875,61 L85.2234875,59.2400479 L83.4416261,56.5121221 L84.4055729,56.5121221 L85.662924,58.523496 L86.8995091,56.5121221 L87.8306322,56.5121221 L86.0547996,59.2400479 L86.0547996,61 Z M70.3663804,59.2798563 L49.8555474,59.2798563 L49.8555474,58.2322658 L70.3663804,58.2322658 L70.3663804,59.2798563 Z M113.216799,59.2798563 L92.705296,59.2798563 L92.705296,58.2322658 L113.216799,58.2322658 L113.216799,59.2798563 Z M57.3453944,52.820413 L53.7327708,52.820413 C52.9443306,52.8162227 52.2061308,52.6388307 51.5168318,52.3077921 C50.8241834,51.9746583 50.2025415,51.5207024 49.6800408,50.941734 C49.1588798,50.3641624 48.7529369,49.6978948 48.452834,48.9310586 C48.1507214,48.1600319 48,47.331737 48,46.4531577 L48,40.0949815 L49.7671242,40.0949815 L49.7671242,46.4531577 C49.7671242,47.0719346 49.873634,47.6362367 50.0853138,48.1733014 C50.2976634,48.7131597 50.5890581,49.1880674 50.9514592,49.5889454 C51.3152001,49.992617 51.726502,50.3131797 52.2094802,50.5464432 C52.6810706,50.7755163 53.1868245,50.8886561 53.7327708,50.8914497 L57.3453944,50.8914497 L57.3453944,52.820413 Z M94.1636089,40.0949815 C93.3671302,40.0949815 92.6188824,40.2653896 91.9215449,40.6006186 C91.2282266,40.9337524 90.6186425,41.3891051 90.0981514,41.9666766 C89.5776602,42.5435498 89.1656885,43.2174998 88.8662554,43.9829392 C88.5648127,44.7525691 88.4140913,45.5801656 88.4140913,46.4580465 C88.4140913,47.3359274 88.5648127,48.1628255 88.8662554,48.9324554 C89.1656885,49.6978948 89.5776602,50.3718448 90.0981514,50.9494163 C90.6186425,51.5262895 91.2282266,51.9816422 91.9215449,52.314776 C92.6188824,52.650005 93.3671302,52.8155243 94.1636089,52.8155243 C94.9600876,52.8155243 95.7130245,52.650005 96.410362,52.314776 C97.1036803,51.9816422 97.7132645,51.5262895 98.2337556,50.9494163 C98.7542467,50.3718448 99.1662184,49.6978948 99.4656515,48.9324554 C99.7664244,48.1628255 99.9131265,47.3359274 99.9131265,46.4580465 C99.9131265,45.5801656 99.7664244,44.7525691 99.4656515,43.9829392 C99.1662184,43.2174998 98.7542467,42.5435498 98.2337556,41.9666766 C97.7132645,41.3891051 97.1036803,40.9337524 96.410362,40.6006186 C95.7130245,40.2653896 94.9600876,40.0949815 94.1636089,40.0949815 Z M63.1438127,52.8155243 L61.3807077,52.8155243 L61.3807077,40.0949815 L63.1438127,40.0949815 L63.1438127,52.8155243 Z M84.4417461,52.8155243 L82.6746218,52.8155243 L82.6746218,40.0949815 L84.4417461,40.0949815 L84.4417461,52.8155243 Z M105.193063,52.8155243 L103.425939,52.8155243 L103.425939,46.4580465 C103.425939,45.5794672 103.57733,44.7504739 103.878773,43.9801457 C104.178876,43.2133094 104.585489,42.5428514 105.10598,41.9652799 C105.62915,41.3856131 106.250122,40.9365459 106.943441,40.6034122 C107.63207,40.2723735 108.37027,40.0949815 109.15871,40.0907912 L109.271918,40.0907912 C110.058349,40.0949815 110.795209,40.2730719 111.483168,40.6034122 C112.175817,40.9365459 112.797458,41.3856131 113.319959,41.9652799 C113.84112,42.5428514 114.251752,43.2133094 114.551855,43.9801457 C114.853298,44.7504739 115,45.5794672 115,46.4580465 L115,52.8155243 L113.232876,52.8155243 L113.232876,46.4580465 C113.232876,45.8392697 113.127036,45.2707772 112.915356,44.7330141 C112.702337,44.1931557 112.410942,43.7231368 112.049211,43.3222588 C111.6848,42.9185872 111.273498,42.5980245 110.79119,42.3640627 C110.320269,42.1363863 109.815855,42.0232465 109.271918,42.0197546 L109.15871,42.0197546 C108.613433,42.0225481 108.10701,42.1356879 107.635419,42.3640627 C107.152441,42.5980245 106.741139,42.9185872 106.377398,43.3222588 C106.014997,43.7231368 105.728292,44.1931557 105.515272,44.7330141 C105.303592,45.2707772 105.193063,45.8392697 105.193063,46.4580465 L105.193063,52.8155243 Z M73.6601446,52.8155243 L72.1582899,52.8155243 C70.6731821,49.2034321 68.8377308,45.0305298 67.0960617,40.8352789 C67.568322,40.5831587 68.1477619,40.2849446 68.6977274,40 C70.1453224,43.3054974 71.4830582,46.6626758 72.915916,49.9751571 C74.3172897,46.6501048 75.7206731,43.3257508 77.1207071,40 C77.5969866,40.243041 78.1730771,40.5468423 78.7223727,40.8352789 C77.2459733,44.4180385 75.3890861,48.6342412 73.6601446,52.8155243 Z M94.1636089,42.0176594 C94.7095552,42.0176594 95.2240174,42.1349895 95.7123547,42.3689514 C96.2033714,42.6043101 96.6274008,42.9185872 96.9851128,43.3152749 C97.3428249,43.7119625 97.6255112,44.1805847 97.8392006,44.7281253 C98.0515502,45.272174 98.1593997,45.8476504 98.1593997,46.4580465 C98.1593997,47.0789185 98.0515502,47.6536965 97.8392006,48.1914596 C97.6255112,48.7341115 97.3394755,49.2062257 96.9810936,49.6091988 C96.6233816,50.0107752 96.2020316,50.3250524 95.7123547,50.5555223 C95.2240174,50.783897 94.7102251,50.8977352 94.1636089,50.8977352 C93.6076146,50.8977352 93.0938222,50.783897 92.6115138,50.5555223 C92.1258561,50.3250524 91.7011568,50.0114736 91.3380858,49.6091988 C90.9750147,49.2062257 90.689649,48.7341115 90.4759596,48.1914596 C90.2642798,47.6536965 90.1557604,47.0789185 90.1557604,46.4580465 C90.1557604,45.8476504 90.2636099,45.272174 90.4759596,44.7281253 C90.689649,44.1805847 90.9756846,43.7112641 91.3380858,43.3152749 C91.7018267,42.9178889 92.1245163,42.6043101 92.6115138,42.3689514 C93.0938222,42.1349895 93.6082844,42.0176594 94.1636089,42.0176594 Z" id="path5009"></path>
            </g>
        </g>
    </g>
</svg>