<?xml version="1.0" encoding="UTF-8"?>
<svg width="359px" height="307px" viewBox="0 0 359 307" version="1.1" xmlns="http://www.w3.org/2000/svg" xmlns:xlink="http://www.w3.org/1999/xlink">
    <!-- Generator: Sketch 52.6 (67491) - http://www.bohemiancoding.com/sketch -->
    <title>Fill 1</title>
    <desc>Created with Sketch.</desc>
    <g id="Page-1" stroke="none" stroke-width="1" fill="none" fill-rule="evenodd">
        <g id="Desktop-HD-Copy-3" transform="translate(-1021.000000, -2054.000000)" fill="#242424">
            <path d="M1185.46076,2077.93438 C1179.18229,2109.67077 1182.94877,2143.74815 1185.46076,2130.3469 C1190.70946,2102.34591 1197.75701,2068.93425 1202.44739,2061.48344 C1201.92601,2086.71162 1206.44959,2131.89323 1207.01291,2121.52468 C1208.08962,2101.69019 1213.72986,2033.57042 1215.42982,2060.01707 C1217.62419,2094.16542 1251.54351,2143.99704 1257.93484,2141.01532 C1258.50116,2140.75143 1259.23129,2140.68646 1258.99457,2131.91122 C1258.81279,2125.16812 1257.50736,2116.8257 1256.90708,2111.05417 C1255.75845,2099.99892 1303.52317,2181.08612 1303.84878,2190.77697 C1303.56912,2184.68158 1299.44207,2160.91278 1300.65561,2161.70944 C1312.37656,2169.40814 1334.18041,2222.12452 1340.19619,2245.16463 C1341.71437,2250.98013 1346.89916,2245.82935 1346.77231,2226.79051 C1346.54159,2192.11139 1379.24836,2316.12118 1365.21719,2317.7135 C1365.99825,2318.68808 1374.93054,2309.51802 1378.33146,2302.06322 C1382.62531,2292.64826 1378.59315,2353.27624 1366.68143,2374.05413 C1367.01503,2374.48614 1378.46031,2368.86176 1378.47929,2369.48999 C1378.76494,2379.16094 1345.82045,2421.8961 1339.15844,2419.95923 C1338.9387,2419.82759 1338.71697,2419.67985 1338.49424,2419.51432 C1338.67202,2419.73593 1338.89476,2419.88266 1339.15844,2419.95923 C1343.01981,2422.27594 1346.22796,2419.60298 1347.05497,2421.33614 C1347.3666,2421.99086 1346.38178,2423.0683 1345.75153,2423.38276 C1313.41731,2439.51864 1286.56451,2445.85322 1264.12942,2449.82881 C1234.41105,2455.09505 1214.56485,2453.833 1201.49653,2453.85599 L1199.50392,2453.84539 C1186.43559,2453.8225 1166.58939,2455.2312 1136.87103,2449.96496 C1114.43563,2445.98936 1087.58283,2439.65478 1055.24881,2423.5189 C1054.61866,2423.20444 1053.63315,2422.127 1053.94547,2421.47238 C1054.77238,2419.73923 1057.98043,2422.41208 1061.8417,2420.09537 C1062.10569,2420.01881 1062.32832,2419.87207 1062.50601,2419.65046 C1062.28267,2419.81599 1062.06114,2419.96383 1061.8417,2420.09537 C1055.17939,2422.03224 1022.2348,2379.29718 1022.52086,2369.62613 C1022.53943,2368.9979 1033.98531,2374.62238 1034.31891,2374.19037 C1022.40719,2353.41218 1018.37423,2292.7842 1022.66888,2302.19916 C1026.0694,2309.65396 1035.00219,2318.82402 1035.78315,2317.84944 C1021.75148,2316.25713 1054.45836,2192.24834 1054.22743,2226.92646 C1054.10059,2245.96529 1059.28567,2251.11608 1060.80425,2245.30057 C1066.81993,2222.26046 1088.62329,2169.54508 1100.34433,2161.84538 C1101.55757,2161.04872 1098.06217,2181.23906 1097.37759,2188.96874 C1097.23696,2189.42855 1100.39836,2180.35944 1106.63768,2168.89635 C1120.68753,2143.08143 1145.07119,2103.85526 1144.09237,2111.19012 C1143.0666,2118.88381 1141.44454,2132.78385 1142.8099,2133.25865 C1140.17107,2132.22109 1186.02907,2075.06262 1185.46076,2077.93438 Z M1200.39899,2194 C1185.2567,2194.48333 1164.79106,2210.53822 1133.09703,2227.77648 C1117.80767,2236.09203 1102.22487,2245.60393 1091.58338,2256.49893 C1083.28872,2264.99123 1080.76809,2364.76932 1089.27301,2373.55292 C1113.39016,2398.46022 1185.82129,2433.32121 1200.76467,2433.99988 C1214.58691,2434.07587 1288.34541,2398.59693 1312.72698,2373.41691 C1321.23189,2364.63331 1318.71136,2264.85542 1310.41641,2256.36312 C1299.77471,2245.46812 1284.19241,2235.95622 1268.90345,2227.64067 C1237.53592,2210.58017 1215.51114,2194.69205 1200.39899,2194 Z M1098.9435,2337 C1095.42276,2332.60516 1100.18319,2292.94646 1140.60726,2293.00005 C1184.42344,2293.05769 1185.67787,2334.02393 1183.28849,2336.75225 C1183.40298,2336.62281 1175.87545,2308.45075 1140.75958,2308.23232 C1106.06096,2308.01693 1100.36877,2335.92607 1098.9435,2337 Z M1302.05669,2337 C1305.57703,2332.60516 1300.81621,2292.94646 1260.39312,2293.00005 C1216.57712,2293.05668 1215.32271,2334.02393 1217.71108,2336.75225 C1217.59758,2336.6218 1225.12409,2308.45075 1260.2398,2308.23232 C1294.93837,2308.01693 1300.63104,2335.92607 1302.05669,2337 Z" id="Fill-1"></path>
        </g>
    </g>
</svg>